<svg xmlns="http://www.w3.org/2000/svg" width="41.357" height="41.498" viewBox="0 0 41.357 41.498">
  <g id="Group_35" data-name="Group 35" transform="translate(-37.48 -117.021)">
    <path id="Path_9" data-name="Path 9" d="M78.757,155.156a6.46,6.46,0,0,0-1.676-3.17,16.338,16.338,0,0,0-2.69-2.236l-1.42-1-2.05-1.45a16.837,16.837,0,0,1-2.831-2.608,40.488,40.488,0,0,1-2.928-3.8l-.687-.982-.25-.353a1.706,1.706,0,0,0-.12-1.541,1.632,1.632,0,0,0-1.442-.75l-.084,0a13.62,13.62,0,0,0,1.58-9.379,13.438,13.438,0,0,0-13.213-10.858v0a13.454,13.454,0,0,0-11.2,20.934,12.954,12.954,0,0,0,7.333,5.419,14.172,14.172,0,0,0,3.925.575,13.6,13.6,0,0,0,6.533-1.726,1.531,1.531,0,0,0,.556,1.472,1.658,1.658,0,0,0,1.057.4,1.77,1.77,0,0,0,.723-.164l.2.141c1.553,1.081,3.159,2.2,4.614,3.445a18.253,18.253,0,0,1,3.063,3.275c.415.58.83,1.175,1.23,1.749.37.528.742,1.062,1.112,1.583a16.078,16.078,0,0,0,2.112,2.562,6.747,6.747,0,0,0,2.682,1.606,4.822,4.822,0,0,0,1.374.222,3.435,3.435,0,0,0,.831-.1,2.063,2.063,0,0,0,1.557-1.378A3.566,3.566,0,0,0,78.757,155.156ZM50.934,142.883h0v-.162a12.256,12.256,0,1,1,12.258-12.247,12.32,12.32,0,0,1-3.58,8.665,12.159,12.159,0,0,1-8.665,3.582l-.006.162ZM63.1,138.671a.424.424,0,0,1-.031.459,1.093,1.093,0,0,1-.135.149l-.585.585c-.9.906-1.838,1.843-2.762,2.76a1.06,1.06,0,0,1-.344.235.318.318,0,0,1-.117.023.4.4,0,0,1-.323-.178.5.5,0,0,1,0-.5,1.157,1.157,0,0,1,.1-.112l1.112-1.113,2.295-2.3a.561.561,0,0,1,.4-.225A.41.41,0,0,1,63.1,138.671Zm14.513,17.26a1.865,1.865,0,0,1-.147.792.941.941,0,0,1-.906.556c-.112.01-.224.016-.335.016a3.5,3.5,0,0,1-1.48-.339,6.76,6.76,0,0,1-2.275-1.745,30.171,30.171,0,0,1-2.058-2.758l-.1-.143c-.788-1.143-1.6-2.326-2.507-3.413a18.707,18.707,0,0,0-2.217-2.22c-1.347-1.156-2.81-2.194-4.227-3.2l-.381-.269-.11-.081,1.609-1.616.964-.966.006.01.679.955c.473.666.956,1.348,1.446,2.008a26.15,26.15,0,0,0,3.173,3.577,25.01,25.01,0,0,0,2.755,2.138l.846.59c.818.569,1.663,1.156,2.475,1.758a7.893,7.893,0,0,1,2.086,2.189A4.428,4.428,0,0,1,77.615,155.93Zm-14.9-17.8v0Z" transform="translate(0 0)" fill="#fff"/>
    <path id="Path_10" data-name="Path 10" d="M57.988,121.716a11.106,11.106,0,0,0-7.907-3.283h-.024a11.167,11.167,0,0,0-7.907,19.039,11.034,11.034,0,0,0,7.751,3.269h.29a11.165,11.165,0,0,0,7.8-19.024Zm2.019,8.048a9.924,9.924,0,0,1-9.865,9.766h-.217a9.935,9.935,0,0,1,.149-19.869,10.044,10.044,0,0,1,7.1,2.992A9.87,9.87,0,0,1,60.007,129.764Z" transform="translate(0.883 0.876)" fill="#fff"/>
  </g>
</svg>
